<svg width="61" height="64" viewBox="0 0 61 64" fill="none" xmlns="http://www.w3.org/2000/svg">
<path d="M48.9764 46.2536H50.5628C52.4376 46.2536 52.726 44.7634 52.8702 44.0904L56.5717 27.4577V46.2536H60.0328V12.6037H58.4465C56.5236 12.6037 56.1871 13.517 55.9948 14.4785L52.4376 31.9764V12.6037H48.9764V46.2536Z" fill="#1A237E"/>
<path d="M43.5631 34.1877V42.3117C43.5631 44.6192 41.7364 46.4939 39.429 46.5901H37.3139C34.9103 46.5901 32.9874 44.6672 32.9874 42.3117V16.5455C32.9874 14.19 34.9103 12.2672 37.3139 12.2672H39.429C41.7364 12.3152 43.5631 14.2381 43.5631 16.5455V21.6891C43.5631 22.7948 43.0824 23.3236 42.6498 23.5158L40.1501 24.6696V17.1224C40.1501 16.1129 39.3329 15.2956 38.2753 15.2956C37.2658 15.2956 36.4486 16.1129 36.4486 17.1224V41.6868C36.4486 42.7444 37.2658 43.5616 38.2753 43.5616C39.3329 43.5616 40.1501 42.7444 40.1501 41.6868V37.1681C40.1501 36.0625 40.6308 35.5337 41.0634 35.2933C41.3519 35.1491 42.6979 34.5723 43.5631 34.1877Z" fill="#1A237E"/>
<path d="M27.2377 34.1877V42.3117C27.2377 44.6192 25.411 46.4939 23.1036 46.5901H20.9884C18.5849 46.5901 16.662 44.6672 16.662 42.3117V16.5455C16.662 14.19 18.5849 12.2672 20.9884 12.2672H23.1036C25.411 12.3152 27.2377 14.2381 27.2377 16.5455V21.6891C27.2377 22.7948 26.757 23.3236 26.3243 23.5158L23.8246 24.6696V17.1224C23.8246 16.1129 23.0074 15.2956 21.9498 15.2956C20.9404 15.2956 20.1231 16.1129 20.1231 17.1224V41.6868C20.1231 42.7444 20.9404 43.5616 21.9498 43.5616C23.0074 43.5616 23.8246 42.7444 23.8246 41.6868V37.1681C23.8246 36.0625 24.3053 35.5337 24.738 35.2933C25.0264 35.1491 26.3724 34.5723 27.2377 34.1877Z" fill="#1A237E"/>
<path d="M1.90735e-05 46.2536H1.58637C3.46116 46.2536 3.74958 44.7634 3.8938 44.0904L7.59529 27.4577V46.2536H11.0564V12.6037H9.47007C7.54722 12.6037 7.21072 13.517 7.01843 14.4785L3.46115 31.9764V12.6037H1.90735e-05V46.2536Z" fill="#1A237E"/>
<path d="M60.3286 50.8684C57.8099 53.0965 53.9665 54.5218 49.6586 54.5218C45.3508 54.5218 41.5074 53.0965 38.9887 50.8684H60.3286Z" fill="#B5B5BA"/>
<path d="M30.9096 62.3569L29.5639 63.7026V49.4545L30.9096 48.1088V62.3569Z" fill="#B5B5BA"/>
<path d="M30.9096 18.7757L29.5639 20.1214V5.87335L30.9096 4.52765V18.7757Z" fill="#B5B5BA"/>
<path d="M49.5805 7.6525L50.9262 8.75796L36.6771 8.75797L35.3324 7.6525L49.5805 7.6525Z" fill="#B5B5BA"/>
<path d="M11.6815 7.6525L10.3358 8.75796L24.5849 8.75797L25.9296 7.6525L11.6815 7.6525Z" fill="#B5B5BA"/>
<circle cx="30.2369" cy="1.54725" r="1.24985" fill="#B5B5BA"/>
<path d="M26.7174 54.8582L25.3717 56.2039V49.3299L26.7174 47.9842V54.8582Z" fill="#B5B5BA"/>
<path d="M21.486 50.8684C18.9673 53.0965 15.1239 54.5218 10.8161 54.5218C6.50823 54.5218 2.6648 53.0965 0.146149 50.8684H21.486Z" fill="#B5B5BA"/>
<path d="M34.9476 54.8582L33.6019 56.2039V49.3299L34.9476 47.9842V54.8582Z" fill="#B5B5BA"/>
</svg>
